#!OML:ASF X:\für Bonn\!DataBase\2005_08_10_Bjorn_Final\c3d\bjorn.ASF
:FULLY-SPECIFIED
:DEGREES
113
root 0.807833 12.0706 2.61276 -180.654 -1.52462 -179.757
lowerback 19.8726 1.2827 5.90067
upperback 8.55727 1.16048 1.11359
thorax -1.68403 0.0117301 -2.37747
lowerneck -23.7275 -1.04174 0.836268
upperneck 0.40029 -2.29868 -2.79116
head 3.73094 -1.68417 -1.25934
rclavicle -1.70955e-014 -2.38542e-014
rhumerus 73.0288 1.32992 -46.3885
rradius 17.494
rwrist 28.0632
rhand -13.8118 9.12244
rfingers 7.12502
rthumb 12.3106 -20.4952
lclavicle -1.70955e-014 -2.38542e-014
lhumerus 78.0996 -3.81095 59.6026
lradius 11.991
lwrist -38.1942
lhand -23.0084 -7.46486
lfingers 7.12502
lthumb 3.43503 22.4872
rfemur 110.22 -152.567 -169.858
rtibia 121.825
rfoot -25.4218 33.8063
rtoes -23.8141
lfemur -70.2153 20.1588 -14.9311
ltibia 124.018
lfoot -27.923 -14.0857
ltoes -33.9039
114
root 0.806204 12.2943 2.59931 -180.56 -1.45353 -179.89
lowerback 19.0867 1.32437 5.68087
upperback 8.43238 1.20334 1.06729
thorax -1.42561 0.0656447 -2.30327
lowerneck -23.7312 -1.14873 0.695924
upperneck 0.904061 -2.33927 -2.71455
head 3.89126 -1.67799 -1.22079
rclavicle -5.96354e-015 1.90833e-014
rhumerus 73.1214 1.35245 -47.2108
rradius 17.4589
rwrist 29.1612
rhand -13.59 9.16624
rfingers 7.12502
rthumb 12.5245 -20.4384
lclavicle -5.96354e-015 1.90833e-014
lhumerus 78.1035 -3.84544 60.1311
lradius 11.8872
lwrist -39.1794
lhand -22.7151 -7.6453
lfingers 7.12502
lthumb 3.71821 22.302
rfemur 111.589 -154.059 -169.737
rtibia 119.967
rfoot -25.8469 32.4891
rtoes -24.0578
lfemur -68.7448 18.7536 -15.131
ltibia 122.115
lfoot -28.0243 -13.0164
ltoes -33.8696
115
root 0.804704 12.519 2.58425 -180.516 -1.36125 -180.002
lowerback 18.3965 1.36734 5.52807
upperback 8.28134 1.26874 0.996158
thorax -1.23616 0.130068 -2.29734
lowerneck -23.7189 -1.26796 0.565421
upperneck 1.51894 -2.38543 -2.63338
head 4.0848 -1.66966 -1.18356
rclavicle 1.70955e-014 1.03368e-014
rhumerus 73.1253 1.40098 -47.8475
rradius 17.4356
rwrist 30.0104
rhand -13.3309 9.21755
rfingers 7.12502
rthumb 12.7742 -20.3717
lclavicle 1.70955e-014 1.03368e-014
lhumerus 78.0119 -3.95243 60.6998
lradius 11.8989
lwrist -40.389
lhand -22.4148 -7.80382
lfingers 7.12502
lthumb 4.00821 22.1382
rfemur 113.029 -155.443 -169.595
rtibia 118.056
rfoot -26.2803 31.2055
rtoes -24.2831
lfemur -67.2101 17.5148 -15.3012
ltibia 120.168
lfoot -28.1608 -12.0206
ltoes -33.9496
116
root 0.803548 12.7456 2.5662 -180.561 -1.30028 -180.131
lowerback 17.7392 1.40418 5.33073
upperback 8.18043 1.30658 0.946862
thorax -1.01179 0.174363 -2.237
lowerneck -23.8277 -1.36676 0.503588
upperneck 2.24851 -2.41422 -2.6496
head 4.33121 -1.66027 -1.18936
rclavicle 1.31198e-014 0
rhumerus 73.164 1.49933 -48.2366
rradius 17.4555
rwrist 30.5965
rhand -13.0028 9.21252
rfingers 7.12502
rthumb 13.0905 -20.3567
lclavicle 1.31198e-014 0
lhumerus 77.906 -4.0183 61.4425
lradius 11.9125
lwrist -41.7633
lhand -22.1806 -7.97156
lfingers 7.12502
lthumb 4.23434 21.9661
rfemur 114.64 -156.683 -169.522
rtibia 116.069
rfoot -26.6694 30.011
rtoes -24.3312
lfemur -65.5286 16.3429 -15.4679
ltibia 118.162
lfoot -28.2947 -11.0734
ltoes -33.8615
117
root 0.802877 12.9731 2.54308 -180.617 -1.23838 -180.261
lowerback 17.0704 1.43658 5.1422
upperback 8.04918 1.34934 0.880159
thorax -0.810812 0.223066 -2.19988
lowerneck -23.8859 -1.46867 0.407862
upperneck 3.08828 -2.42749 -2.62576
head 4.60754 -1.63665 -1.17577
rclavicle -2.5842e-014 -1.19271e-014
rhumerus 73.1006 1.66675 -48.4635
rradius 17.5035
rwrist 30.9644
rhand -12.681 9.21966
rfingers 7.12502
rthumb 13.4006 -20.3293
lclavicle -2.5842e-014 -1.19271e-014
lhumerus 77.7607 -4.18511 61.9097
lradius 11.9101
lwrist -42.895
lhand -22.0208 -8.11499
lfingers 7.12502
lthumb 4.38869 21.8195
rfemur 116.305 -157.823 -169.465
rtibia 114.037
rfoot -27.0687 28.8853
rtoes -24.3335
lfemur -63.8201 15.2781 -15.6425
ltibia 116.11
lfoot -28.4572 -10.1716
ltoes -33.8603
